<svg width="408" height="428" viewBox="0 0 408 428" fill="none" xmlns="http://www.w3.org/2000/svg">
<g filter="url(#filter0_i)">
<path d="M98.9715 82.5C84.4715 99.5 113.971 112.5 113.471 111.5L121.972 104.5C109.972 91.5 113.471 89.5 109.472 82.5C106.272 76.9 101.138 80.1667 98.9715 82.5Z" fill="#BD792A"/>
</g>
<path d="M98.9715 82.5C84.4715 99.5 113.971 112.5 113.471 111.5L121.972 104.5C109.972 91.5 113.471 89.5 109.472 82.5C106.272 76.9 101.138 80.1667 98.9715 82.5Z" stroke="black" stroke-width="2"/>
<g filter="url(#filter1_i)">
<path d="M237.972 92.0001C245.172 100.8 223.305 112.667 211.472 117.5L205.472 111C216.672 103.4 221.805 93.8334 222.972 90.0001C224.972 87.0001 230.772 83.2001 237.972 92.0001Z" fill="#BD792A"/>
</g>
<path d="M237.972 92.0001C245.172 100.8 223.305 112.667 211.472 117.5L205.472 111C216.672 103.4 221.805 93.8334 222.972 90.0001C224.972 87.0001 230.772 83.2001 237.972 92.0001Z" stroke="black" stroke-width="2"/>
<g filter="url(#filter2_i)">
<path d="M86.972 138.5C91.472 137.5 122.472 79 182.472 99C230.472 115 234.805 167.667 230.972 192C248.139 212.833 280.972 264 274.972 302C270.354 331.244 256.829 381.146 212.227 405.5C220.142 408 234.972 414.8 230.972 422C226.972 429.2 206.305 418.67 196.472 412.505C169.867 421.89 134.377 423.159 86.972 410C80.3532 408.163 74.195 406.089 68.4717 403.803C55.1384 409.869 26.0719 420.101 16.4717 412.505C6.87144 404.909 36.4716 398.515 52.4717 396.267C-25.7973 353.024 1.50855 260.834 28.472 215.5L52.4717 185.5C39.1385 169.833 27.3722 138.5 86.972 138.5Z" fill="#BD792A"/>
</g>
<path d="M212.227 405.5C256.829 381.146 270.354 331.244 274.972 302C280.972 264 248.139 212.833 230.972 192C234.805 167.667 230.472 115 182.472 99C122.472 79 91.472 137.5 86.972 138.5C27.3722 138.5 39.1385 169.833 52.4717 185.5L28.472 215.5C1.50855 260.834 -25.7973 353.024 52.4717 396.267M212.227 405.5C220.142 408 234.972 414.8 230.972 422C226.972 429.2 206.305 418.67 196.472 412.505M212.227 405.5C207.356 408.16 202.113 410.515 196.472 412.505M196.472 412.505C169.867 421.89 134.377 423.159 86.972 410C80.3532 408.163 74.195 406.089 68.4717 403.803M52.4717 396.267C36.4716 398.515 6.87144 404.909 16.4717 412.505C26.0719 420.101 55.1384 409.869 68.4717 403.803M52.4717 396.267C57.3809 398.979 62.7056 401.499 68.4717 403.803" stroke="black" stroke-width="2"/>
<g filter="url(#filter3_d)">
<path d="M159.471 259.5C209.871 299.9 191.138 381.667 175.471 417.5C125.471 424.7 86.6379 411.833 73.4713 404.5C68.138 359.833 66.0713 268.3 100.471 259.5C134.871 250.7 154.138 255.833 159.471 259.5Z" fill="#FFDAA4"/>
</g>
<circle cx="107.972" cy="134" r="5" fill="black"/>
<circle cx="169.972" cy="134" r="5" fill="black"/>
<path d="M129.573 144.227C121.573 142.627 119.24 149.893 119.073 153.727C117.655 158.527 131.482 160.06 138.573 160.227C144.073 160.393 155.473 159.327 157.073 153.727C158.673 148.127 153.073 145.06 150.073 144.227C146.573 144.893 137.573 145.827 129.573 144.227Z" fill="#693900" stroke="black"/>
<g filter="url(#filter4_i)">
<path d="M201.972 207.5C181.172 203.5 163.972 240.167 157.972 259C152.472 256 132.272 252.2 95.4722 261C94.8055 246.667 85.3722 211.6 52.9722 186C38.9722 170 26.0722 138.2 86.4722 139C98.8054 139.667 122.972 142.2 120.972 147C118.972 150.167 118.972 157.4 134.972 161C142.639 160.833 157.972 158.6 157.972 151C161.89 155.034 164.844 157.002 176.472 158C225.972 157.5 227.972 212.5 201.972 207.5Z" fill="#FFDAA4"/>
</g>
<g filter="url(#filter5_i)">
<path d="M121.98 227.252C123.582 226.931 127.352 227.043 129.615 230.062C126.944 231.817 122.51 236.291 126.151 240.145C132.705 240.115 146.172 243.675 147.613 258.154C148.047 266.845 144.719 285.943 127.932 292.802C109.162 287.924 103.192 270.444 102.553 262.313C101.648 255.691 104.12 241.964 121.251 240.03C120.197 238.746 118.867 234.393 121.98 227.252Z" fill="#4F2C16"/>
</g>
<path d="M126.151 240.145C122.51 236.291 126.944 231.817 129.615 230.062C127.352 227.043 123.582 226.931 121.98 227.252C118.867 234.393 120.197 238.746 121.251 240.03M126.151 240.145C132.705 240.115 146.172 243.675 147.613 258.154M126.151 240.145L121.251 240.03M147.613 258.154C140.66 254.451 121.914 250.1 102.553 262.313M147.613 258.154C148.047 266.845 144.719 285.943 127.932 292.802C109.162 287.924 103.192 270.444 102.553 262.313M102.553 262.313C101.648 255.691 104.12 241.964 121.251 240.03" stroke="black" stroke-width="5"/>
<g filter="url(#filter6_i)">
<path d="M147.516 258.031C128.868 249.578 109.784 257.348 102.574 262.289C105.402 283.688 120.672 291.531 127.953 292.778C145.103 285.105 148.141 266.416 147.516 258.031Z" fill="#A0592B"/>
</g>
<path d="M147.516 258.031C128.868 249.578 109.784 257.348 102.574 262.289C105.402 283.688 120.672 291.531 127.953 292.778C145.103 285.105 148.141 266.416 147.516 258.031Z" stroke="black" stroke-width="5"/>
<path d="M106.972 267C107.372 257 91.1383 249.5 82.9717 247L86.4717 263C93.1383 268.5 106.572 277 106.972 267Z" fill="#BD792A"/>
<path d="M82.9717 247C91.1383 249.5 107.372 257 106.972 267C106.572 277 93.1383 268.5 86.4717 263" stroke="black"/>
<path d="M142.659 270.294C135.613 261 155.378 250.148 166.141 245.884L167.683 249.224L169.225 252.563L172.309 259.243C165.361 266.799 149.704 279.587 142.659 270.294Z" fill="#BD792A"/>
<g filter="url(#filter7_i)">
<path d="M166.141 245.884C155.378 250.148 135.613 261 142.659 270.294C149.704 279.587 165.361 266.799 172.309 259.243" stroke="black"/>
</g>
<path d="M176.472 158C184.805 157.667 203.972 160.8 213.972 176C216.472 180.5 220.572 191.6 216.972 200C215.805 203.167 211.172 209.1 201.972 207.5" stroke="black"/>
<path d="M136.972 160V169M136.972 169C139.305 170.833 145.672 173.4 152.472 169M136.972 169C135.305 171 129.772 173.8 120.972 169" stroke="black"/>
<path d="M131.972 184V171.5C132.972 171.333 135.372 170.7 136.972 169.5C139.86 170.857 141.505 171.624 142.972 171.5C143.972 174.833 145.472 181.8 145.472 185C145.472 188.2 140.805 185.667 138.472 184C138.072 185.6 133.972 184.667 131.972 184Z" fill="white"/>
<path d="M138.472 184C138.072 185.6 133.972 184.667 131.972 184V171.5C132.972 171.333 135.372 170.7 136.972 169.5M138.472 184C138.872 182.4 137.638 173.667 136.972 169.5M138.472 184C140.805 185.667 145.472 188.2 145.472 185C145.472 181.8 143.972 174.833 142.972 171.5C141.505 171.624 139.86 170.857 136.972 169.5" stroke="black"/>
<g filter="url(#filter8_i)">
<path d="M254.972 364C263.305 348.833 279.172 312.2 275.972 287C271.972 255.5 261.472 238 254.972 228C251.472 196.667 254.672 127.1 295.472 99.4999C336.272 71.8999 375.472 83.6666 389.972 92.9999C398.305 100.667 412.872 123.3 404.472 152.5C370.638 136.667 316.972 130.9 372.972 234.5C423.453 327.89 359.897 380.837 310.865 400.596C306.245 403.041 301.113 404.935 295.472 405.895C280.195 408.495 261.18 404.24 238.472 385.5L254.972 364Z" fill="#CB6E00"/>
<path d="M254.972 364C263.305 348.833 279.172 312.2 275.972 287C271.972 255.5 261.472 238 254.972 228C251.472 196.667 254.672 127.1 295.472 99.4999C336.272 71.8999 375.472 83.6666 389.972 92.9999C398.305 100.667 412.872 123.3 404.472 152.5C370.638 136.667 316.972 130.9 372.972 234.5C423.453 327.89 359.897 380.837 310.865 400.596C306.245 403.041 301.113 404.935 295.472 405.895C280.195 408.495 261.18 404.24 238.472 385.5L254.972 364Z" fill="url(#paint0_linear)"/>
</g>
<path d="M404.472 152.5C412.872 123.3 398.305 100.667 389.972 92.9999C375.472 83.6666 336.272 71.8999 295.472 99.4999C254.672 127.1 251.472 196.667 254.972 228C261.472 238 271.972 255.5 275.972 287C279.172 312.2 263.305 348.833 254.972 364L238.472 385.5C261.18 404.24 280.195 408.495 295.472 405.895M404.472 152.5C403.472 142.667 396.472 121.6 376.472 116C351.472 109 321.972 136.5 319.472 149.5C316.972 162.5 298.972 207.5 335.472 251C371.972 294.5 348.472 361 335.472 378.5C328.204 388.283 314.842 402.599 295.472 405.895M404.472 152.5C370.638 136.667 316.972 130.9 372.972 234.5C428.972 338.1 344.639 391.93 295.472 405.895" stroke="black"/>
<path d="M60.5961 105.326C48.1537 94.0305 58.2602 83.7771 64.8688 80.0624C75.0753 84.7393 90.3655 90.2664 108.941 94.8965C112.217 74.3337 121.036 29.4571 130.104 14.4532C139.173 -0.550639 160.152 10.0385 169.508 17.2086C188.924 3.32913 202.205 13.1461 206.418 19.7896L216.638 103.001C231.21 101.347 245.921 98.3812 260.391 93.7347C274.505 98.3304 271.567 110.722 268.334 116.344C193.558 139.183 76.149 119.445 60.5961 105.326Z" fill="#816647"/>
<path d="M216.638 103.001C231.21 101.347 245.921 98.3812 260.391 93.7347C274.505 98.3304 271.567 110.722 268.334 116.344C193.558 139.183 76.149 119.445 60.5961 105.326C48.1537 94.0305 58.2602 83.7771 64.8688 80.0624C75.0753 84.7393 90.3655 90.2664 108.941 94.8965M216.638 103.001L206.418 19.7896C202.205 13.1461 188.924 3.32913 169.508 17.2086C160.152 10.0385 139.173 -0.550639 130.104 14.4532C121.036 29.4571 112.217 74.3337 108.941 94.8965M216.638 103.001C177.226 107.474 138.831 102.347 108.941 94.8965" stroke="black"/>
<path d="M216.472 103C173.672 108.2 126.972 99.8333 108.972 95L110.472 85C127.638 89.6667 172.672 97.9 215.472 93.5L216.472 103Z" fill="#B18C60" stroke="black"/>
<defs>
<filter id="filter0_i" x="93.959" y="78.408" width="29.4654" height="38.1458" filterUnits="userSpaceOnUse" color-interpolation-filters="sRGB">
<feFlood flood-opacity="0" result="BackgroundImageFix"/>
<feBlend mode="normal" in="SourceGraphic" in2="BackgroundImageFix" result="shape"/>
<feColorMatrix in="SourceAlpha" type="matrix" values="0 0 0 0 0 0 0 0 0 0 0 0 0 0 0 0 0 0 127 0" result="hardAlpha"/>
<feOffset dy="4"/>
<feGaussianBlur stdDeviation="2"/>
<feComposite in2="hardAlpha" operator="arithmetic" k2="-1" k3="1"/>
<feColorMatrix type="matrix" values="0 0 0 0 0 0 0 0 0 0 0 0 0 0 0 0 0 0 0.25 0"/>
<feBlend mode="normal" in2="shape" result="effect1_innerShadow"/>
</filter>
<filter id="filter1_i" x="203.949" y="85.5498" width="36.4458" height="37.1384" filterUnits="userSpaceOnUse" color-interpolation-filters="sRGB">
<feFlood flood-opacity="0" result="BackgroundImageFix"/>
<feBlend mode="normal" in="SourceGraphic" in2="BackgroundImageFix" result="shape"/>
<feColorMatrix in="SourceAlpha" type="matrix" values="0 0 0 0 0 0 0 0 0 0 0 0 0 0 0 0 0 0 127 0" result="hardAlpha"/>
<feOffset dy="4"/>
<feGaussianBlur stdDeviation="2"/>
<feComposite in2="hardAlpha" operator="arithmetic" k2="-1" k3="1"/>
<feColorMatrix type="matrix" values="0 0 0 0 0 0 0 0 0 0 0 0 0 0 0 0 0 0 0.25 0"/>
<feBlend mode="normal" in2="shape" result="effect1_innerShadow"/>
</filter>
<filter id="filter2_i" x="0" y="93.8359" width="276.695" height="335.59" filterUnits="userSpaceOnUse" color-interpolation-filters="sRGB">
<feFlood flood-opacity="0" result="BackgroundImageFix"/>
<feBlend mode="normal" in="SourceGraphic" in2="BackgroundImageFix" result="shape"/>
<feColorMatrix in="SourceAlpha" type="matrix" values="0 0 0 0 0 0 0 0 0 0 0 0 0 0 0 0 0 0 127 0" result="hardAlpha"/>
<feOffset dy="4"/>
<feGaussianBlur stdDeviation="2"/>
<feComposite in2="hardAlpha" operator="arithmetic" k2="-1" k3="1"/>
<feColorMatrix type="matrix" values="0 0 0 0 0 0 0 0 0 0 0 0 0 0 0 0 0 0 0.25 0"/>
<feBlend mode="normal" in2="shape" result="effect1_innerShadow"/>
</filter>
<filter id="filter3_d" x="66.4414" y="254.641" width="129.815" height="172.978" filterUnits="userSpaceOnUse" color-interpolation-filters="sRGB">
<feFlood flood-opacity="0" result="BackgroundImageFix"/>
<feColorMatrix in="SourceAlpha" type="matrix" values="0 0 0 0 0 0 0 0 0 0 0 0 0 0 0 0 0 0 127 0"/>
<feOffset dy="4"/>
<feGaussianBlur stdDeviation="2"/>
<feColorMatrix type="matrix" values="0 0 0 0 0 0 0 0 0 0 0 0 0 0 0 0 0 0 0.25 0"/>
<feBlend mode="normal" in2="BackgroundImageFix" result="effect1_dropShadow"/>
<feBlend mode="normal" in="SourceGraphic" in2="effect1_dropShadow" result="shape"/>
</filter>
<filter id="filter4_i" x="41.2607" y="138.985" width="177.228" height="126.015" filterUnits="userSpaceOnUse" color-interpolation-filters="sRGB">
<feFlood flood-opacity="0" result="BackgroundImageFix"/>
<feBlend mode="normal" in="SourceGraphic" in2="BackgroundImageFix" result="shape"/>
<feColorMatrix in="SourceAlpha" type="matrix" values="0 0 0 0 0 0 0 0 0 0 0 0 0 0 0 0 0 0 127 0" result="hardAlpha"/>
<feOffset dy="4"/>
<feGaussianBlur stdDeviation="2"/>
<feComposite in2="hardAlpha" operator="arithmetic" k2="-1" k3="1"/>
<feColorMatrix type="matrix" values="0 0 0 0 0 0 0 0 0 0 0 0 0 0 0 0 0 0 0.25 0"/>
<feBlend mode="normal" in2="shape" result="effect1_innerShadow"/>
</filter>
<filter id="filter5_i" x="86.332" y="221.303" width="79.3649" height="83.6532" filterUnits="userSpaceOnUse" color-interpolation-filters="sRGB">
<feFlood flood-opacity="0" result="BackgroundImageFix"/>
<feBlend mode="normal" in="SourceGraphic" in2="BackgroundImageFix" result="shape"/>
<feColorMatrix in="SourceAlpha" type="matrix" values="0 0 0 0 0 0 0 0 0 0 0 0 0 0 0 0 0 0 127 0" result="hardAlpha"/>
<feOffset dy="4"/>
<feGaussianBlur stdDeviation="2"/>
<feComposite in2="hardAlpha" operator="arithmetic" k2="-1" k3="1"/>
<feColorMatrix type="matrix" values="0 0 0 0 0 0 0 0 0 0 0 0 0 0 0 0 0 0 0.25 0"/>
<feBlend mode="normal" in2="shape" result="effect1_innerShadow"/>
</filter>
<filter id="filter6_i" x="92.0967" y="233.698" width="67.1899" height="71.2359" filterUnits="userSpaceOnUse" color-interpolation-filters="sRGB">
<feFlood flood-opacity="0" result="BackgroundImageFix"/>
<feBlend mode="normal" in="SourceGraphic" in2="BackgroundImageFix" result="shape"/>
<feColorMatrix in="SourceAlpha" type="matrix" values="0 0 0 0 0 0 0 0 0 0 0 0 0 0 0 0 0 0 127 0" result="hardAlpha"/>
<feOffset dy="4"/>
<feGaussianBlur stdDeviation="2"/>
<feComposite in2="hardAlpha" operator="arithmetic" k2="-1" k3="1"/>
<feColorMatrix type="matrix" values="0 0 0 0 0 0 0 0 0 0 0 0 0 0 0 0 0 0 0.25 0"/>
<feBlend mode="normal" in2="shape" result="effect1_innerShadow"/>
</filter>
<filter id="filter7_i" x="136.962" y="244.688" width="37.8739" height="35.4484" filterUnits="userSpaceOnUse" color-interpolation-filters="sRGB">
<feFlood flood-opacity="0" result="BackgroundImageFix"/>
<feBlend mode="normal" in="SourceGraphic" in2="BackgroundImageFix" result="shape"/>
<feColorMatrix in="SourceAlpha" type="matrix" values="0 0 0 0 0 0 0 0 0 0 0 0 0 0 0 0 0 0 127 0" result="hardAlpha"/>
<feOffset dy="4"/>
<feGaussianBlur stdDeviation="2"/>
<feComposite in2="hardAlpha" operator="arithmetic" k2="-1" k3="1"/>
<feColorMatrix type="matrix" values="0 0 0 0 0 0 0 0 0 0 0 0 0 0 0 0 0 0 0.25 0"/>
<feBlend mode="normal" in2="shape" result="effect1_innerShadow"/>
</filter>
<filter id="filter8_i" x="237.781" y="81.8311" width="169.715" height="329.259" filterUnits="userSpaceOnUse" color-interpolation-filters="sRGB">
<feFlood flood-opacity="0" result="BackgroundImageFix"/>
<feBlend mode="normal" in="SourceGraphic" in2="BackgroundImageFix" result="shape"/>
<feColorMatrix in="SourceAlpha" type="matrix" values="0 0 0 0 0 0 0 0 0 0 0 0 0 0 0 0 0 0 127 0" result="hardAlpha"/>
<feOffset dy="4"/>
<feGaussianBlur stdDeviation="2"/>
<feComposite in2="hardAlpha" operator="arithmetic" k2="-1" k3="1"/>
<feColorMatrix type="matrix" values="0 0 0 0 0 0 0 0 0 0 0 0 0 0 0 0 0 0 0.25 0"/>
<feBlend mode="normal" in2="shape" result="effect1_innerShadow"/>
</filter>
<linearGradient id="paint0_linear" x1="322.734" y1="82.3313" x2="322.734" y2="406.59" gradientUnits="userSpaceOnUse">
<stop stop-color="#A35700"/>
<stop offset="1" stop-color="white" stop-opacity="0"/>
</linearGradient>
</defs>
</svg>
